<?xml version="1.0" encoding="utf-8"?>
<!-- Generator: Adobe Illustrator 25.2.0, SVG Export Plug-In . SVG Version: 6.00 Build 0)  -->
<svg version="1.1" id="svg6159" xmlns:svg="http://www.w3.org/2000/svg"
	 xmlns="http://www.w3.org/2000/svg" xmlns:xlink="http://www.w3.org/1999/xlink" x="0px" y="0px" viewBox="0 0 16 16"
	 style="enable-background:new 0 0 16 16;" xml:space="preserve">
<style type="text/css">
	.st0{fill:none;}
	.st1{fill:none;stroke:#163266;stroke-width:0.3;stroke-miterlimit:13.3333;}
	.st2{fill:#FFFFFF;}
</style>
<rect class="st0" width="16" height="16"/>
<g id="g6169">
	<g id="g6195" transform="translate(391,466)">
		<path id="path6197" class="st1" d="M-378.9-464.4h2.8c0.4,0,0.7,0.3,0.7,0.7v8.7c0,0.4-0.3,0.7-0.7,0.7h-13.8
			c-0.4,0-0.7-0.3-0.7-0.7v-2.5"/>
	</g>
	<g id="g6199" transform="translate(7.5394,256)">
		<path id="path6201" class="st1" d="M-7.2-248v-5.7c0-0.4,0.3-0.7,0.7-0.7H4.1"/>
	</g>
	<g id="g6231" transform="translate(233.5,136.0712)">
		<path id="path6233" class="st1" d="M-226.2-124.4v1.8h1.4v-1.8"/>
	</g>
	<g id="g6235" transform="translate(278.5,46.0638)">
		<path id="path6237" class="st1" d="M-269.8-31.6h1.4v-0.9h-1.4"/>
	</g>
	<g id="g6239" transform="translate(248.5128,46.0638)">
		<path id="path6241" class="st1" d="M-240.7-31.6h0.5"/>
	</g>
	<g id="g6243" transform="translate(233.5,76.0638)">
		<path id="path6245" class="st1" d="M-226.2-62.5h-1.4v0.9h1.4"/>
	</g>
	<path class="st2" d="M14.9,11.5H1.1c-0.3,0-0.5-0.2-0.5-0.5V2.2c0-0.3,0.2-0.5,0.5-0.5h13.9c0.3,0,0.5,0.2,0.5,0.5V11
		C15.5,11.3,15.2,11.5,14.9,11.5z"/>
	<g id="g6175" transform="translate(121.0002,278.4711)">
		<path id="path6177" class="st1" d="M-117.1-271.2l0.5,0c0.5,0,0.9-0.4,0.9-0.9l0,0c0-0.5-0.4-0.9-0.9-0.9h-0.5V-271.2z"/>
	</g>
	<g id="g6179" transform="translate(256.1243,271.0044)">
		<path id="path6181" class="st1" d="M-248.1-263.5v-2.1h0.1l0.8,0.9l0.8-0.9h0.1v2.1"/>
	</g>
	<g id="g6183" transform="translate(345.9998,300.971)">
		<path id="path6185" class="st1" d="M-335.2-294.4v-0.5c0-0.4,0.3-0.7,0.7-0.7l0,0c0.4,0,0.7,0.3,0.7,0.7v0.5
			c0,0.4-0.3,0.7-0.7,0.7l0,0C-334.9-293.7-335.2-294-335.2-294.4z"/>
	</g>
	<g id="g6187" transform="translate(233.4998,338.5712)">
		<path id="path6189" class="st1" d="M-226.2-333.1h-1.2v1.8h1.2"/>
	</g>
	<g id="g6203" transform="translate(7.5394,421.0638)">
		<path id="path6205" class="st1" d="M-7.2-418.1H8.1"/>
	</g>
	<g id="g6207" transform="translate(7.5394,195.6163)">
		<path id="path6209" class="st1" d="M-7.2-185.8H8.1"/>
	</g>
	<g id="g6211" transform="translate(256,173.5712)">
		<path id="path6213" class="st1" d="M-248-163v0.5"/>
	</g>
	<g id="g6215" transform="translate(286,173.5712)">
		<path id="path6217" class="st1" d="M-277.1-163v0.5"/>
	</g>
	<g id="g6219" transform="translate(226,173.5712)">
		<path id="path6221" class="st1" d="M-218.9-163v0.5"/>
	</g>
	<g id="g6223" transform="translate(38.5926,398.5712)">
		<path id="path6225" class="st1" d="M-37.3-394.9v0.5"/>
	</g>
	<g id="g6227" transform="translate(68.6564,398.5712)">
		<path id="path6229" class="st1" d="M-66.4-394.9v0.5"/>
	</g>
	<rect x="7.4" y="11.8" class="st2" width="1.1" height="1.6"/>
	<g id="g6191" transform="translate(195.9892,308.6031)">
		<path id="path6193" class="st1" d="M-189.8-302.2h0.7"/>
	</g>
	<rect x="6.1" y="13.7" class="st2" width="3.9" height="0.6"/>
</g>
</svg>
